# xmcd
# 
# Track frame offsets:
#     150
#     12582
#     24112
#     33722
#     46517
#     58792
#     72142
#     84797
#     98362
#     111795
#     122955
#     136842
#     147485
#     157660
#     170510
#     181577
#     196242
#     209557
#     226382
# 
# Disc length: 3247
# 
# Revision: 11
# Processed by: cddbd v1.5.2PL0 Copyright (c) Steve Scherf et al.
# Submitted via: fre:ac v1.0.31
# 
DISCID=ef0cad13
DTITLE=Marvin Gaye - Gold - Disc 1
DYEAR=2001
DGENRE=R&B
TTITLE0=Stubborn Kind Of Fellow
TTITLE1=Hitch Hike
TTITLE2=Pride And Joy
TTITLE3=Can I Get A Witness
TTITLE4=You're A Wonderful One
TTITLE5=How Sweet It Is (To Be Loved By You)
TTITLE6=I'll Be Doggone
TTITLE7=Ain't That Peculiar
TTITLE8=It Takes Two (Duet with Kim Weston)
TTITLE9=Ain't No Mountain High Enough (Duet with Tammi Terrell)
TTITLE10=Your Precious Love (Duet with Tammi Terrell)
TTITLE11=If I Could Build My Whole World Around You (Duet with Tammi Terrell)
TTITLE12=Ain't Nothing Like The Real Thing (Duet with Tammi Terrell)
TTITLE13=You're All I Need To Get By (Duet with Tammi Terrell)
TTITLE14=You
TTITLE15=I Heard It Through The Grapevine
TTITLE16=Too Busy Thinking About My Baby
TTITLE17=That's The Way Love Is
TTITLE18=His Eye Is On the Sparrow
EXTD=
EXTT0=
EXTT1=
EXTT2=
EXTT3=
EXTT4=
EXTT5=
EXTT6=
EXTT7=
EXTT8=
EXTT9=
EXTT10=
EXTT11=
EXTT12=
EXTT13=
EXTT14=
EXTT15=
EXTT16=
EXTT17=
EXTT18=
PLAYORDER=
